<?xml version="1.0" ?><!DOCTYPE svg  PUBLIC '-//W3C//DTD SVG 1.1//EN'  'http://www.w3.org/Graphics/SVG/1.1/DTD/svg11.dtd'><svg enable-background="new 0 0 512 512" height="512px" id="Layer_1" version="1.1" viewBox="0 0 512 512" width="512px" xml:space="preserve" xmlns="http://www.w3.org/2000/svg" xmlns:xlink="http://www.w3.org/1999/xlink"><path d="M232.367,14.733c51.667-4.966,104.882,7.05,149.217,34.101c41.782,25.167,75.617,63.216,95.8,107.616  c21.333,46.4,26.999,99.583,16.983,149.583c-9.984,50.15-36.519,96.768-74.317,131.2C382.233,472.149,333,494.4,281.801,499.834  c-33.035,3.082-66.785,0.598-98.501-9.469c-54.233-16.632-102.083-53.031-132.716-100.783  c-25.767-39.648-39.467-87.016-38.817-134.315C11.9,201.183,31.101,147.45,64.984,105.333  C105.533,54.184,167.317,20.6,232.367,14.733L232.367,14.733z" fill="#988430"/><path d="M250.651,21.216c43.333-0.75,86.932,10.301,124.298,32.383c40.301,23.667,73.45,59.517,93.502,101.767  c21.647,44.066,28.031,95.1,19.615,143.35C477.033,363.367,437.283,422.35,381.7,457.1c-38.484,24.668-84.433,37.451-130.1,36.45  c-44.6-0.3-88.851-14.199-126.017-38.767c-38.05-25.101-68.867-61.25-86.817-103.217c-20.7-47.232-25.1-101.351-12.5-151.351  c12.3-50.634,42.45-96.434,83.366-128.566C149.45,40,199.85,22.25,250.651,21.216L250.651,21.216z" fill="#7A6A2A"/><path d="M160.9,46.35c40.7-18.45,86.851-24.3,130.952-17.333C337.9,36.183,381.5,57.883,415.133,90.133  c41.149,39,67.102,93.583,71,150.167c5.133,64.519-18.515,130.701-63.683,177.084c-0.634-13.45-0.834-26.917-1.083-40.384  c-0.102-9.982-2.318-19.749-3.168-29.648c0.184-3.468,0.583-6.918,0.7-10.367c0.482-9.352-4.468-18.065-3.2-27.483  c1.233-13.233-5.698-25.231-9.131-37.634c-3.418-8.717-3.203-18.299-6.52-27.033C397.666,211.1,384.6,177.05,359,154.133  c0.834-1.166,2.466-3.533,3.3-4.716c1.019,2.2,2.166,4.316,3.317,6.433c5.95-6.733,6.866-16,8.633-24.434  c3.317-15.034,1.017-30.566-1.55-45.517c-1.983-7.666-3.566-16.549-9.983-21.85c-6.851-4.033-18.716-4.1-22.701,3.9  c-0.133,0.467-0.398,1.4-0.531,1.851c-2.983,5.184-7.117,9.666-12.302,12.683c-9.198,5.667-14.216,16.417-24.05,21.384  c-6.132,2-12.365-1.401-18.615-0.7c-11.767,1.216-23.717,1.833-35.149,5.117c-10.817-1.716-21.684-3.434-32.434-5.6  c0.033-0.784,0.116-2.334,0.167-3.117c-4.917-4.766-9.4-10.2-11.184-16.949C202.634,70.05,194.884,57.95,183.2,51.784  c-1.65-0.65-3.3-1.284-4.95-1.883c-1.034,1.133-2.034,2.283-3.017,3.433c-0.383,0.884-1.15,2.65-1.533,3.517  c-2.601,5.816-2.018,12.3-2.201,18.5c-0.167,16.017-1.833,32.417-8.599,47.134c-10.9-0.034-21.784-0.117-32.667,0.017  c-2.167,4.9-1.401,10.333-1.517,15.517c-17.516,16.217-24.517,40.117-27.784,63.034c-0.017,1.767,0.05,3.55,0.201,5.316  c0.033,0.7,0.083,2.1,0.116,2.784c-7.7,10.149-9.05,23.416-11.033,35.6c2.816-0.167,5.633-0.333,8.466-0.45  c-2.6,0.283-5.2,0.534-7.783,0.784c-0.5,2.783-0.9,5.566-1.217,8.367c2.534-0.934,5.05-1.901,7.583-2.834l1.368,0.067  c-3.017,1.233-5.967,2.667-8.9,4.117c0.066,1.766,0.2,5.317,0.25,7.083c3.433-1.766,6.9-3.433,10.333-5.199l-1.25,1.4  c-2.917,1.898-6.649,2.916-8.95,5.615c0.067,6.4,0.967,12.768,1.833,19.102c2.25,14.399,7.3,28.416,14.684,40.983  c-0.216,9.183-2.2,18.433-7.617,26.015c1.517,2.869,4.05,5.52,4.2,8.885c-0.95,5.719-5.55,10.549-4.583,16.617  c1.233,14.715-4.167,28.766-10.55,41.717c-33.117-34.416-55-79.451-61.617-126.768c-6.284-44.167,0.3-90.184,19.35-130.583  C68.95,109.733,110.617,68.716,160.9,46.35L160.9,46.35z" fill="#BA9F33"/><path d="M175.233,53.333c0.983-1.15,1.983-2.3,3.017-3.433c1.649,0.6,3.3,1.233,4.95,1.883  c2.783,8.75,7.1,17.5,6.216,26.933c-0.317,6.3-1.683,13.067,1.483,18.934c1.366,3.333,4.684,5.067,7.5,6.983  c-1.7,1.316-3.384,2.633-5.167,3.816c-7.366,2.933-13.233,8.4-18.75,13.916c-2.133,0-4.267,0.017-6.4,0.017  C179.75,108.366,184.9,89.9,184.85,71.867C185.083,64.383,179.35,58.917,175.233,53.333L175.233,53.333z" fill="#C79C3B"/><path d="M183.2,51.784c11.684,6.166,19.434,18.267,22.716,30.833c1.784,6.75,6.267,12.183,11.184,16.949  c-0.05,0.783-0.133,2.333-0.167,3.117c-6.101-2-13.601-3.267-18.534,1.95c-2.816-1.917-6.134-3.65-7.5-6.983  c-3.167-5.867-1.8-12.634-1.483-18.934C190.3,69.283,185.983,60.534,183.2,51.784L183.2,51.784z" fill="#B58634"/><path d="M175.233,53.333c4.116,5.583,9.85,11.05,9.617,18.534c0.05,18.034-5.1,36.5-16.767,50.516  c-0.8,0.018-2.384,0.05-3.184,0.05c5.05-7.732,10.066-16.116,10.6-25.599c0.951-13.383-3.167-26.567-1.799-39.983  C174.083,55.983,174.85,54.217,175.233,53.333L175.233,53.333z" fill="#DFC068"/><path d="M171.5,75.35c0.184-6.2-0.399-12.683,2.201-18.5c-1.368,13.417,2.75,26.6,1.799,39.983  c-0.533,9.483-5.549,17.867-10.6,25.599l-2,0.051C169.667,107.767,171.333,91.367,171.5,75.35L171.5,75.35z" fill="#A78F33"/><path d="M340.016,67.95c3.985-8,15.852-7.933,22.701-3.9c6.417,5.3,8,14.184,9.983,21.85  c2.565,14.951,4.867,30.483,1.55,45.517c-1.767,8.433-2.683,17.7-8.633,24.434c-1.151-2.117-2.3-4.233-3.317-6.433  c-1.132-3.301-2.083-6.667-3.148-10c4.1-9.15,6.183-19.15,7.266-29.083c0.984-8.866-4.916-16.167-10.8-22  C352.5,80.1,346.184,73.967,340.016,67.95L340.016,67.95z" fill="#A17C34"/><path d="M339.483,69.8c0.133-0.45,0.398-1.383,0.531-1.851c6.168,6.017,12.484,12.15,15.602,20.383  c-0.167,2.417-0.716,5.051-3.25,5.984c-7.217,3.65-15.3,6.3-20.582,12.783c-3.616,4.583-10.668,7.199-11.234,13.583  c0.768,0.567,2.301,1.683,3.066,2.25c-0.716,0.934-2.134,2.801-2.851,3.733c0.916,0.951,1.853,1.884,2.783,2.818  c3.852-4.017,9.769-4.367,14.75-6.134c-0.784,1.933-1.565,3.884-2.35,5.834c2.116-0.468,4.267-0.934,6.398-1.366  c-2.634,3.016-5.584,5.749-8.683,8.299c-0.35-0.2-1.05-0.567-1.399-0.75c-3.8-1.883-7.501-4.417-11.866-4.583  c-0.218-0.65-0.634-1.917-0.851-2.567c-2.399-0.133-4.783-0.584-7.051-1.351c0.634-1.583,1.898-4.733,2.533-6.299  c-1.315,0.633-3.969,1.917-5.283,2.55c3.583-5.883,7.064-11.833,10.567-17.767c0.249-0.433,0.749-1.3,0.999-1.733  c4.815-8.933,11.898-16.383,16.75-25.266C339.768,75.783,339.7,72.733,339.483,69.8L339.483,69.8z" fill="#B89844"/><path d="M339.483,69.8c0.217,2.933,0.283,5.983-1.417,8.55c-4.852,8.883-11.935,16.333-16.75,25.266  c-0.083-7.5,0.899-15.166,5.865-21.133C332.366,79.466,336.5,74.984,339.483,69.8L339.483,69.8z" fill="#CBA94C"/><path d="M303.133,103.867c9.834-4.967,14.852-15.717,24.05-21.384c-4.966,5.967-5.948,13.633-5.865,21.133  c-0.25,0.434-0.75,1.301-0.999,1.733c0.197-2.883-0.085-5.75-0.501-8.6c-4.65,9.6-9.767,19.033-16.802,27.133  c-4.064-1.101-8.281-1.5-12.5-1.5c2.334-4.466,5.334-8.533,8.502-12.417c-16.334-3.833-33.134-0.116-49.649-1.683  c11.434-3.284,23.384-3.9,35.149-5.117C290.768,102.466,297.001,105.867,303.133,103.867L303.133,103.867z" fill="#AC8132"/><path d="M355.616,88.333c5.884,5.833,11.784,13.134,10.8,22c-1.083,9.933-3.166,19.933-7.266,29.083  c-3.019,2.467-6.15,4.8-9.25,7.183c-1.469-1.083-2.968-2.15-4.451-3.216l-0.732-0.5c4.769-10.25,12.466-19.882,12.967-31.533  c-9.083,0.334-18.167,1.817-26.816,4.583c-3.566,0.884-5.383,4.167-7.25,7c-0.767-0.567-2.3-1.683-3.066-2.25  c0.566-6.384,7.618-9,11.234-13.583c5.282-6.483,13.365-9.133,20.582-12.783C354.9,93.384,355.449,90.75,355.616,88.333  L355.616,88.333z" fill="#927238"/><path d="M319.816,96.75c0.416,2.85,0.698,5.716,0.501,8.6c-3.502,5.934-6.984,11.884-10.567,17.767  c1.315-0.633,3.968-1.917,5.283-2.55c-0.634,1.566-1.899,4.716-2.533,6.299c-3.149-1.066-6.283-2.133-9.484-2.983  C310.051,115.783,315.166,106.35,319.816,96.75L319.816,96.75z" fill="#8C6228"/><path d="M198.4,104.634c4.933-5.217,12.433-3.95,18.534-1.95c10.75,2.167,21.617,3.884,32.434,5.6  c16.517,1.566,33.315-2.15,49.649,1.683c-3.168,3.883-6.168,7.95-8.502,12.417c-26.716-0.033-53.449,0.117-80.166,0.018  c-1.116-3.801-1.267-8.533-4.767-11.066c-3.567-2.567-8.183-2.417-12.35-2.884C195.016,107.267,196.7,105.95,198.4,104.634  L198.4,104.634z" fill="#D2A83E"/><path d="M174.483,122.366c5.517-5.516,11.383-10.983,18.75-13.916c4.167,0.467,8.783,0.317,12.35,2.884  c3.5,2.533,3.651,7.266,4.767,11.066C198.4,122.366,186.433,122.383,174.483,122.366L174.483,122.366z" fill="#DCBA5A"/><path d="M330.866,115.933c8.649-2.766,17.733-4.25,26.816-4.583c-0.501,11.651-8.198,21.284-12.967,31.533  c-3.533-2.5-7.231-4.733-11.05-6.767c3.099-2.55,6.049-5.283,8.683-8.299c-2.133,0.433-4.282,0.898-6.398,1.366  c0.783-1.95,1.564-3.901,2.35-5.834c-4.981,1.768-10.898,2.117-14.75,6.134c-0.932-0.934-1.867-1.867-2.783-2.818  c0.717-0.932,2.135-2.799,2.851-3.733C325.483,120.1,327.3,116.817,330.866,115.933L330.866,115.933z" fill="#543E26"/><path d="M130.234,122.5c10.883-0.134,21.766-0.05,32.667-0.017l2-0.051c0.8,0,2.384-0.032,3.184-0.05  c2.133,0,4.267-0.017,6.4-0.017c11.95,0.017,23.917,0,35.866,0.034c26.717,0.1,53.45-0.05,80.167-0.018  c4.217,0,8.435,0.4,12.499,1.5c3.201,0.85,6.335,1.917,9.484,2.983c2.268,0.767,4.65,1.217,7.051,1.351  c0.217,0.65,0.633,1.917,0.851,2.567c4.365,0.167,8.066,2.7,11.866,4.583c-2.468,6.367-7.482,11.067-12.134,15.85  c4.083,2.268,8.133,4.634,11.852,7.484c4.749-4.866,9.132-10.084,13.465-15.317c1.483,1.066,2.982,2.133,4.451,3.216  c3.149,2.367,6.198,4.867,9.1,7.533c25.6,22.917,38.666,56.967,41.05,90.701c0.316,4.417,0.384,8.85,0.518,13.268  c-0.1,17.549-1.684,35.217-6.282,52.199c-3.185,11.782-7.7,23.249-13.884,33.782c-4.335,6.683-8.984,13.217-14.584,18.917  c-3.636,3.8-7.45,7.45-11.683,10.6c-1.901-0.981-3.785-1.949-5.685-2.916c-3.233,1.801-6.233,4.649-10.133,4.732  c-5.235,0.352-10.084,2.634-15.234,3.534c5-7.466,15.217-13.067,13.567-23.4c-2.816,0.134-5.617,0.267-8.417,0.4  c0.949-3.616,1.865-7.269,2.731-10.916c-0.934-0.617-2.767-1.851-3.682-2.468c3.147-3.517,6.367-7.018,9.332-10.717  c-6.333,1.45-12.049,4.584-18.051,6.949c11.501-16.749,21.617-34.482,30.085-52.951c4.833-11.447,11.281-22.799,11.433-35.565  c0.434-8.149-4.783-15.199-5.033-23.283c-0.717-9.3-0.698-20.066-8.416-26.683c-13.315,2.732-26.8,0.183-40.084-1.368  c-3.565-0.517-7.149,0.1-10.666,0.684c-0.617-0.751-1.27-1.45-1.917-2.15c-4.133-4.15-8.5-8.483-14.151-10.434  c-5.199-0.85-10.481-0.167-15.715-0.116l-0.717-0.184c-5.783-2.517-11.801-5.799-18.334-4.634c-5.433,0.567-8.667,5.501-13,8.217  c-4.466,2.833-8.899,5.8-12.283,9.934c4.467,7.634,12.483,11.816,20.783,13.967c-0.283,4.983-0.666,9.95-1.1,14.917  c-5.1,1.7-9.866,4.233-14.25,7.333c-2.334-5.049-3.434-10.566-5.683-15.633c-2.4-3.2-5.733-5.55-8.75-8.133  c-0.7,2.15-1.384,4.316-2.084,6.483c-1.534,0.8-3.067,1.617-4.599,2.434c-0.218-3.767-0.318-7.55-1.001-11.267  c-1.499-6.75-6.316-12.083-8.867-18.4c0.417-6.466,2.384-12.767,2.551-19.267c-3.233,1.3-6.517,2.484-9.684,3.917  c-4.334,1.716-6.467,6.283-10.184,8.833c-3.616,1.6-7.55,2.2-11.35,3.201l0.483-1.383c3.383-2.967,4.35-7.334,5.2-11.534  c-2.149,1.033-4.284,2.066-6.417,3.117c-2.684-3.766,1.4-6.3,3.733-8.767c-3.45-3.2-8.1-5.684-12.883-3.95  c-8.017,2.8-11.549,11.7-12.367,19.534c-3.283,0.083-6.567,0.233-9.85,0.167c1.283-2.367,2.55-4.734,3.85-7.1  c-1.616-3.583-5.25-4.934-8.7-6.117c0.184-8.934,0.034-17.85,0.017-26.767c0.034-2.617,0.1-5.216,0.1-7.833  C128.833,132.833,128.066,127.4,130.234,122.5L130.234,122.5z" fill="#F3EBDB"/><path d="M332.268,135.367c0.351,0.183,1.051,0.55,1.399,0.75c3.817,2.034,7.517,4.267,11.05,6.767l0.732,0.5  c-4.333,5.233-8.716,10.451-13.465,15.317c-3.719-2.85-7.769-5.216-11.852-7.484C324.784,146.434,329.8,141.733,332.268,135.367  L332.268,135.367z" fill="#DCDAD7"/><path d="M100.933,201.05c3.267-22.917,10.268-46.817,27.784-63.034c0,2.617-0.066,5.217-0.1,7.833  c-11.6,12.15-18.3,28.35-21.467,44.667c-1.233,5.55-3.717,10.699-6.016,15.85C100.983,204.601,100.916,202.817,100.933,201.05  L100.933,201.05z" fill="#A78E32"/><path d="M349.9,146.6c3.1-2.383,6.231-4.716,9.25-7.183c1.065,3.333,2.018,6.699,3.148,10  c-0.834,1.183-2.466,3.55-3.3,4.716C356.1,151.467,353.051,148.967,349.9,146.6L349.9,146.6z" fill="#B59544"/><path d="M107.15,190.517c3.167-16.317,9.867-32.517,21.467-44.667c0.017,8.917,0.167,17.833-0.017,26.767  c-5.5,4.683-7.95,12.383-15.033,15.2c-0.951,4.867-2.883,9.467-5.75,13.517c-2.083,2.7-4.35,5.233-6.567,7.817  c-0.034-0.684-0.083-2.083-0.116-2.784C103.433,201.216,105.917,196.066,107.15,190.517L107.15,190.517z" fill="#EBCC73"/><path d="M155.667,166.133c4.784-1.733,9.434,0.75,12.883,3.95c-2.333,2.466-6.417,5-3.733,8.767  c2.133-1.05,4.268-2.083,6.417-3.117c-0.85,4.2-1.816,8.566-5.2,11.534c-4.367-0.634-8.801-0.7-13.184-0.234  c0.267-2.616,0.45-5.267,1.1-7.816c2-2.167,4.883-3.101,7.416-4.417c-1.533-1.55-2.766-3.55-4.767-4.517  c-4.783,1.284-9.566,4.917-10.283,10.083c0.117,2.367,0.5,4.717,0.85,7.083c-0.783-0.033-2.367-0.1-3.149-0.116l-0.984-0.033  l0.267-1.634C144.117,177.833,147.65,168.934,155.667,166.133L155.667,166.133z" fill="#D7D7D5"/><path d="M354.083,169.366c4.05-1.399,8.133-2.716,12.25-3.883c3.084,6.183,2.051,12.9-1.082,18.816  c1.498,0,3.016,0.017,4.533,0.033c0.267,5.2,0.199,12.483-5.917,14.184c-3.384-7.45-11.467-11.784-13.533-19.967  C350.583,175.184,352.633,172.317,354.083,169.366L354.083,169.366z" fill="#E6DED7"/><path d="M146.316,180.367c0.717-5.167,5.5-8.799,10.283-10.083c2.001,0.967,3.233,2.967,4.767,4.517  c-2.533,1.316-5.417,2.25-7.416,4.417c-0.65,2.549-0.833,5.2-1.1,7.816c-1.417,0.101-4.267,0.3-5.684,0.417  C146.816,185.084,146.433,182.733,146.316,180.367L146.316,180.367z" fill="#F5F2E6"/><path d="M187.083,176.617c3.167-1.433,6.451-2.617,9.684-3.917c-0.167,6.5-2.134,12.801-2.551,19.267  c2.551,6.316,7.368,11.649,8.867,18.4c0.683,3.717,0.783,7.5,1.001,11.267c1.532-0.816,3.065-1.634,4.599-2.434  c0.7-2.167,1.384-4.333,2.084-6.483c3.017,2.583,6.35,4.933,8.75,8.133c2.249,5.067,3.349,10.583,5.683,15.633  c4.383-3.1,9.15-5.633,14.25-7.333c0.435-4.967,0.817-9.934,1.1-14.917c0.017-0.533,0.034-1.6,0.05-2.133  c-2.951-2.466-7.584-4.051-7.984-8.45c-0.366-5.601,3.167-10.467,7.117-14.05c1.1,0.234,2.216,0.5,3.35,0.667  c2.15-0.167,3.2-1.433,3.134-3.833c2.883-0.117,5.767,0.017,8.65,0.183c-2.917,4.033-6.633,7.783-11.75,8.633  c-0.017,2.7,0.049,5.4,0.2,8.1c-0.167,2.716-0.449,5.433-0.617,8.15l-0.05,1.866c0.033,6.417,0.033,12.85,0.083,19.267  c0.034,32.084-0.116,64.15,0.067,96.234c0.149,0.615,0.466,1.867,0.633,2.482c14.452-0.967,30.9,3.566,43.434-5.852  c17.565-12.615,24.783-34.684,26.6-55.398c2.05-24.451-2.314-50.617-17.583-70.467c3.517-0.584,7.101-1.201,10.666-0.684  c13.284,1.55,26.769,4.1,40.084,1.368c7.718,6.616,7.699,17.383,8.416,26.683c0.25,8.083,5.467,15.134,5.033,23.283  c-0.15,12.767-6.6,24.117-11.433,35.566c-8.468,18.467-18.584,36.201-30.085,52.95c6.002-2.366,11.718-5.499,18.051-6.948  c-2.965,3.698-6.185,7.199-9.332,10.715c0.915,0.617,2.748,1.852,3.682,2.469c-0.866,3.648-1.782,7.3-2.731,10.916  c2.8-0.135,5.601-0.268,8.417-0.4c1.648,10.333-8.567,15.936-13.567,23.4c5.15-0.9,9.999-3.184,15.234-3.534  c3.898-0.083,6.898-2.933,10.133-4.731c1.898,0.967,3.782,1.934,5.685,2.916c-20.134,15.299-45.518,23.551-70.801,22.983  c-22.001-0.067-44,0.099-66.001-0.084c-9.532,0.032-19.082,0.017-28.616,0.032c-7,0-14.017,0-21.017,0.035  c-2.05-0.018-4.1-0.035-6.15-0.035c-9.351-0.032-18.717,0.334-28.05-0.066c-3.283,0.268-4.6-3.382-4.617-6.05  c-0.417-7.416-0.033-14.832-0.15-22.249c0.083-8.467,0.133-16.949-0.083-25.417c-0.034-3.699,0.55-7.334,1.417-10.916  c11.767-1.201,23.583,0.332,35.383-0.483c0-4.033,0.016-8.067,0.016-12.082c0-3.103,0-6.201,0.033-9.285  c0.717,2.701,1.6,5.351,2.466,8.018c5.568-1.032,11.751-2.45,15.951,2.482c9.817-8.699,24.283-8.282,36.017-13.1  c2.55-6.634,8.5-11.984,7.717-19.634c-0.466-0.101-1.433-0.315-1.899-0.433c-12.284-3.867-23.768,4.082-35.767,5  c-7.984-0.75-15.684-4.617-20.817-10.801c0.433-1.767,0.917-3.533,1.383-5.283c-1.183-0.982-2.366-1.967-3.549-2.95  c-0.133-3.566-0.184-7.134,0.016-10.683c1.083-4.201,3.883-7.484,7.733-9.417c1.233-6.299,2.25-12.633,3.35-18.95  c-3.284-4.149-7.716-7.05-12.65-8.866v-0.483c-0.033-4.234-0.033-8.45,0-12.683c0.083-7.3,0-14.601-0.033-21.901  c0.033-0.417,0.1-1.25,0.133-1.649c3.8-1,7.733-1.601,11.35-3.201C180.617,182.9,182.75,178.333,187.083,176.617L187.083,176.617z" fill="#F8F3E4"/><path d="M113.567,187.817c7.083-2.817,9.533-10.517,15.033-15.2c0.066,4.2,0.15,8.4,0.266,12.601  c1.15,0.149,3.434,0.466,4.583,0.616c3.283,0.066,6.567-0.083,9.85-0.167l-0.267,1.634c-4.483-0.084-8.967-0.101-13.45-0.185  c-0.55,2.518-0.933,5.051-1.067,7.618c-8.75,3.399-14,11.433-21.149,17.016c0.066-3.484,0.15-6.95,0.45-10.417  C110.684,197.284,112.616,192.684,113.567,187.817L113.567,187.817z" fill="#F4EFC8"/><path d="M128.6,172.617c3.45,1.184,7.083,2.534,8.7,6.117c-1.3,2.366-2.567,4.733-3.85,7.1  c-1.15-0.15-3.433-0.467-4.583-0.616C128.75,181.017,128.667,176.816,128.6,172.617L128.6,172.617z" fill="#FCFCF4"/><path d="M232.049,190.333c4.333-2.716,7.568-7.649,13-8.217c6.533-1.166,12.551,2.117,18.334,4.634  c-2.85-0.067-5.685-0.017-8.517-0.133c-2.883-0.167-5.767-0.3-8.65-0.183c-2.351,0.133-3.4,1.416-3.134,3.833  c-1.133-0.167-2.25-0.433-3.35-0.667c-3.95,3.583-7.483,8.449-7.117,14.05c0.4,4.399,5.033,5.984,7.984,8.45  c-0.016,0.533-0.033,1.6-0.05,2.133c-8.3-2.15-16.316-6.333-20.783-13.967C223.15,196.133,227.583,193.167,232.049,190.333  L232.049,190.333z" fill="#D7D7D5"/><path d="M129.583,187.116c4.483,0.084,8.966,0.1,13.45,0.185l0.984,0.033c1.783,3.55,4.25,6.716,7.766,8.7  c1.084,0.851,2.15,1.733,3.201,2.634c-3.5,5.366-8.634,9.616-11.151,15.616c-2.5,1.017-4.967,2.1-7.483,3.018  c-0.534-0.352-1.6-1.034-2.134-1.384c0.517-0.884,1.517-2.633,2.018-3.517c-1.9-0.451-3.817-0.9-5.717-1.35  c-1-5.4-1.718-10.833-2.001-16.316C128.65,192.167,129.033,189.634,129.583,187.116L129.583,187.116z" fill="#E5C66B"/><path d="M144.017,187.333c0.783,0.017,2.367,0.083,3.149,0.116c-0.4,6.734,7.3,5.95,11.8,5.25  c-2.017-1.934-4.033-3.833-6.116-5.667c4.383-0.466,8.816-0.4,13.184,0.234l-0.483,1.383c-0.034,0.399-0.1,1.233-0.133,1.649  c-4.984,1.017-8.317,6.25-13.634,5.733C148.267,194.05,145.8,190.884,144.017,187.333L144.017,187.333z" fill="#242110"/><path d="M147.167,187.45c1.417-0.116,4.267-0.316,5.684-0.417c2.083,1.834,4.1,3.733,6.116,5.667  C154.467,193.4,146.767,194.184,147.167,187.45L147.167,187.45z" fill="#938357"/><path d="M243.083,190.267c-0.267-2.417,0.783-3.7,3.134-3.833C246.283,188.833,245.233,190.1,243.083,190.267  L243.083,190.267z" fill="#CDBD83"/><path d="M254.867,186.617c2.833,0.116,5.667,0.066,8.517,0.133l0.716,0.184c3.719,2.383,7.383,4.95,10.434,8.2  c-3.516,7.534-9.766,13.884-17.5,17.067c-4.648,1.399-9.599,0.933-14.382,1.166l0.05-1.866c3.599-0.034,7.199-0.167,10.816-0.367  c-3.967-1.8-7.783-4.051-10.2-7.783c-0.151-2.7-0.217-5.4-0.2-8.1C248.234,194.399,251.95,190.65,254.867,186.617L254.867,186.617z" fill="#252211"/><path d="M264.1,186.934c5.233-0.05,10.517-0.734,15.717,0.116c5.65,1.951,10.019,6.283,14.15,10.434  c-5.334,5.517-8.816,12.383-13.384,18.467c-4.519,6.217-12.649,7.284-19.015,10.783c-5.854,3.167-12.168,5.383-18.835,5.899  c-0.05-6.417-0.05-12.85-0.083-19.267c4.784-0.232,9.734,0.234,14.382-1.166c7.733-3.184,13.985-9.534,17.5-17.067  C271.482,191.884,267.816,189.317,264.1,186.934L264.1,186.934z" fill="#D2B257"/><path d="M151.783,196.033c5.316,0.517,8.65-4.717,13.634-5.733c0.033,7.3,0.116,14.601,0.033,21.901  c-4,0.982-8.184,3.116-12.3,1.566c-3.101-1.234-6.333-0.884-9.317,0.516c2.517-6,7.651-10.25,11.151-15.616  C153.933,197.767,152.867,196.884,151.783,196.033L151.783,196.033z" fill="#E6BD62"/><path d="M255.517,190.85C260.917,191.3,252.716,195.866,255.517,190.85L255.517,190.85z" fill="#696148"/><path d="M107.367,211.75c7.149-5.583,12.399-13.617,21.149-17.016c0.283,5.483,1,10.916,2.001,16.316  c1.9,0.45,3.816,0.899,5.717,1.35c-0.5,0.883-1.501,2.632-2.018,3.517c-5.649,4.283-12.983,7.466-15.767,14.483  c-3.167,8.6-2.85,17.933-4.033,26.917c-2.05-2.033-5.117-3.717-4.934-7.034c-0.433-6.75,1.351-13.383,1.75-20.083  c-3.117,4.534-5,9.733-6.866,14.867c-0.851,3.233-4.634,3.934-7.101,5.55c-2.533,0.933-5.049,1.9-7.583,2.834  c0.317-2.801,0.717-5.584,1.217-8.367c2.583-0.25,5.183-0.5,7.783-0.784c-2.833,0.118-5.65,0.283-8.466,0.45  c1.983-12.184,3.333-25.45,11.033-35.6c2.217-2.583,4.483-5.117,6.567-7.817C107.517,204.8,107.433,208.266,107.367,211.75  L107.367,211.75z" fill="#F4ECB4"/><path d="M257.15,197.116C262.2,194.734,257.667,202.55,257.15,197.116L257.15,197.116z" fill="#71694F"/><path d="M293.967,197.483c0.648,0.7,1.301,1.399,1.917,2.15c15.269,19.85,19.633,46.016,17.583,70.467  c-2.617,1.416-5.283,2.767-7.75,4.45c-4.233,2.898-6.55,7.832-10.783,10.732c-7.416,3.7-16.748,2.815-23.351,8.267  c-3.767,4.268-6.333,9.518-10.733,13.233c2.352,2.384,4.885,4.601,7.051,7.166c1.134,1.983,0.718,4.534,1.85,6.532  c2.118,1.701,4.535,3,6.852,4.435c-6,0.901-12.084,0.685-18.101-0.117c-5.617-1.065-10.684,2.118-15.7,4.068  c-0.184-32.084-0.033-64.15-0.067-96.234c6.667-0.516,12.983-2.732,18.834-5.899c6.365-3.5,14.498-4.566,19.016-10.783  C285.148,209.866,288.633,203,293.967,197.483L293.967,197.483z" fill="#DFCD88"/><path d="M243.317,203.35c2.417,3.732,6.232,5.983,10.2,7.783c-3.617,0.2-7.218,0.333-10.816,0.367  C242.868,208.783,243.15,206.066,243.317,203.35L243.317,203.35z" fill="#DFCD88"/><path d="M143.833,214.283c2.983-1.4,6.216-1.75,9.317-0.516c4.117,1.55,8.3-0.584,12.3-1.566  c-0.033,4.233-0.033,8.449,0,12.683c-7.95-2.801-16.234-5-24.75-4.534c-1.45-1.033-2.9-2.05-4.35-3.049  C138.866,216.383,141.333,215.3,143.833,214.283L143.833,214.283z" fill="#DFC57C"/><path d="M118.45,230.4c2.784-7.017,10.117-10.201,15.767-14.483c0.534,0.35,1.6,1.032,2.134,1.384  c1.45,0.999,2.9,2.016,4.35,3.049c-7.601,0.251-15.1,5.151-16,13.15c-1.316,10.167-4.833,19.917-5.783,30.116  c-1,7.334,5.767,12.134,7.883,18.532c0.65,3.483,0.867,7.033,1.75,10.469c-1.016,4.449-1.899,8.934-2.6,13.433  c-1.483,0.034-2.983,0.084-4.466,0.134c-1.567,3.635-3.451,7.166-4.634,10.967c1.35,7.316,3.75,14.434,5.434,21.701  c-0.333,0.814-1.018,2.465-1.351,3.282c-3.633-3.95-5.7-9.466-10.5-12.2c-1.232-2.084-2.565-4.084-3.799-6.148  C99.25,311.217,94.2,297.2,91.95,282.801c0.684-4.252,1.5-8.484,2.201-12.718c3.066,6.084,2.733,13.501,6.833,19.051  c2.783-0.733,5.583-1.417,8.417-1.917l1.399,1.666c2.934-4.249,5.7-8.816,6.234-14.083c-1.917,2.601-3.7,5.302-5.317,8.101  c-2.333-3.666-5.099-7.166-6.449-11.332c-0.75-4.818-0.583-9.701-0.967-14.535c-1.75,0.334-3.484,0.668-5.234,1.052l1.25-1.399  c1.55-1.733,3.033-3.518,4.534-5.285c-2.068-0.267-4.133-0.6-6.217-0.716l-1.368-0.067c2.467-1.616,6.25-2.317,7.101-5.55  c1.867-5.134,3.75-10.333,6.866-14.867c-0.4,6.7-2.183,13.333-1.75,20.083c-0.183,3.317,2.884,5,4.934,7.034  C115.6,248.333,115.283,239,118.45,230.4L118.45,230.4z" fill="#F3E19D"/><path d="M124.7,233.5c0.9-8,8.4-12.899,16-13.15c8.516-0.466,16.8,1.733,24.75,4.534v0.483  c0.049,7.45-0.05,14.883,0.033,22.333l-0.017,1.383c-2.5,2.433-4.867,5.016-7.267,7.567c-4.066,3.467-9.283,4.85-14.35,6.149  c-0.233,1.082-0.7,3.249-0.933,4.333c-0.267,1.199-0.784,3.616-1.05,4.815c-7.15-6.632-11.334-15.533-16.083-23.866  C123.133,243.65,124.15,238.317,124.7,233.5L124.7,233.5z" fill="#252211"/><path d="M165.45,225.367c4.934,1.816,9.366,4.716,12.65,8.866c-1.1,6.317-2.117,12.651-3.35,18.95  c-3.85,1.934-6.65,5.217-7.733,9.417c0.267-5.033-0.55-10-1.533-14.899C165.4,240.25,165.5,232.817,165.45,225.367L165.45,225.367z" fill="#DFDDD9"/><path d="M52.083,227.5c5.316-0.683,10.7-0.1,16.034-0.417l-2.35,2.983c8.267-0.617,16.684-0.016,24.666,2.3  c-7.315-1.467-14.75-2.599-22.215-2.033c-2.767,0.316-5.234-0.967-7.5-2.367C58.033,227.75,53.783,230.667,52.083,227.5  L52.083,227.5z" fill="#D6D6D5"/><path d="M118.917,263.616c0.95-10.199,4.466-19.95,5.783-30.116c-0.549,4.817-1.567,10.15,1.084,14.583  c4.749,8.333,8.933,17.233,16.083,23.866c0.266-1.199,0.783-3.616,1.05-4.815c2.616,0.117,5.233,0.267,7.867,0.433  c3.666,2.968,7.616,5.634,10.783,9.184c3.417-6.499-1.399-12.866-0.75-19.549c-0.649-0.135-1.966-0.417-2.617-0.551  c2.4-2.55,4.767-5.133,7.267-7.566c-0.034,11.35,0.017,22.716,0.017,34.066c-12.833-4-26.533-8.649-39.95-4.351  c12.55,5.733,26.7,6.185,39.933,9.65c0,3.75-0.034,7.5-0.066,11.25c-6.118,2.749-11.684,6.55-17.633,9.634  c-6.201-4.167-10.717-10.283-16.867-14.518c-0.583-0.549-1.766-1.649-2.35-2.199c-0.883-3.436-1.1-6.984-1.75-10.469  C124.684,275.75,117.917,270.95,118.917,263.616L118.917,263.616z" fill="#6E6342"/><path d="M67.933,251.933c6.383-3.533,13.617-5.116,20.701-6.517c-0.751,1.6-2,2.567-3.717,2.933  C79.383,250.017,73.8,251.95,67.933,251.933L67.933,251.933z" fill="#BFA64C"/><path d="M400.05,244.833c3.315,8.733,3.102,18.317,6.52,27.033c3.433,12.401,10.364,24.399,9.131,37.634  c-1.698-2.768-3.281-5.716-3.148-9.066c0.032-7.149-3.785-13.383-5.534-20.133c-2.065-7.435-4.217-14.834-6.449-22.199  C400.434,253.683,400.366,249.25,400.05,244.833L400.05,244.833z" fill="#988430"/><path d="M165.483,247.7c0.983,4.9,1.8,9.866,1.533,14.899c-0.2,3.551-0.149,7.116-0.016,10.684  c1.183,0.984,2.366,1.968,3.549,2.949c-0.467,1.75-0.95,3.519-1.383,5.283c-0.65,2.584-0.75,5.268-0.717,7.934  c18.167,6.4,40.918,10.867,57.302-2.133c0.466,0.117,1.433,0.332,1.899,0.434c0.783,7.648-5.167,13-7.717,19.635  c-11.733,4.815-26.2,4.398-36.017,13.098c-4.2-4.933-10.383-3.514-15.951-2.481c-0.866-2.667-1.749-5.315-2.466-8.017  c-0.149-3.434-0.116-6.852-0.099-10.283c0.032-3.75,0.066-7.5,0.066-11.25c0.017-1.768,0.017-3.534,0.017-5.301  c0-11.35-0.051-22.717-0.017-34.066L165.483,247.7L165.483,247.7z" fill="#E7E3DB"/><path d="M98.634,250.684c2.083,0.116,4.149,0.45,6.217,0.716c-1.501,1.767-2.984,3.55-4.534,5.284  c-3.433,1.768-6.9,3.435-10.333,5.199c-0.05-1.766-0.184-5.316-0.25-7.083C92.667,253.35,95.617,251.917,98.634,250.684  L98.634,250.684z" fill="#F5EDB6"/><path d="M99.066,258.084c1.75-0.384,3.483-0.718,5.234-1.052c0.383,4.834,0.216,9.717,0.967,14.534  c1.35,4.168,4.116,7.666,6.449,11.334c-0.816,1.416-1.583,2.85-2.316,4.315c-2.833,0.5-5.634,1.185-8.417,1.917  c-4.1-5.55-3.767-12.967-6.833-19.051c-0.701,4.232-1.517,8.466-2.201,12.718c-0.867-6.334-1.767-12.7-1.833-19.102  C92.417,261,96.15,259.982,99.066,258.084L99.066,258.084z" fill="#F4ECB4"/><path d="M143.85,262.801c5.067-1.301,10.283-2.684,14.35-6.15c0.65,0.134,1.967,0.416,2.617,0.551  c-0.649,6.683,4.167,13.05,0.75,19.549c-3.167-3.55-7.117-6.216-10.783-9.184c-2.633-0.166-5.25-0.314-7.867-0.433  C143.15,266.05,143.617,263.883,143.85,262.801L143.85,262.801z" fill="#39331F"/><path d="M400.566,258.102c2.232,7.365,4.384,14.766,6.449,22.199c1.749,6.75,5.566,12.982,5.534,20.133  c-0.133,3.352,1.45,6.301,3.148,9.066c-1.268,9.418,3.684,18.133,3.2,27.484c-0.117,3.447-0.518,6.898-0.7,10.365  c-1.249-2.135-2.732-4.117-4.315-6c-1.815,5.617-0.617,12.551-5.2,16.933c-2.001-2.832-3-7.532-7.084-7.948  c-5.916-0.951-11.434,1.949-15.399,6.132c-5.217,5.584-13.282,5.834-20.383,6.534c5.6-5.7,10.249-12.234,14.584-18.917  c3.864,1.218,6.466-2.231,9.35-4.101c2.85-2.416,6.584-3.233,9.767-5.084c2.699-4.267,4.7-9.031,5.834-13.948  c-0.917-3.233-2.435-6.25-3.167-9.533c-1.667,0.399-3.3,0.799-4.949,1.2c-0.732-0.585-2.218-1.733-2.949-2.316  C398.884,293.316,400.468,275.65,400.566,258.102L400.566,258.102z" fill="#CCA847"/><path d="M82.634,265.4c2.5-1.15,2.533,2.134,0.499,2.648c-1.767,0.9-3.883,2.751-5.966,1.867  C77.083,267.333,80.717,266.352,82.634,265.4L82.634,265.4z" fill="#C1A956"/><path d="M305.717,274.551c2.467-1.685,5.133-3.033,7.75-4.449c-1.815,20.715-9.033,42.782-26.6,55.397  c-12.534,9.418-28.982,4.885-43.434,5.853c-0.167-0.617-0.483-1.867-0.633-2.483c5.016-1.95,10.083-5.134,15.7-4.068  c6.016,0.802,12.102,1.019,18.1,0.117c-2.314-1.435-4.731-2.731-6.851-4.435c-1.132-1.998-0.716-4.549-1.849-6.532  c-2.168-2.565-4.7-4.782-7.051-7.166c4.399-3.718,6.967-8.966,10.732-13.233c6.602-5.449,15.934-4.564,23.352-8.267  C299.167,282.383,301.482,277.449,305.717,274.551L305.717,274.551z" fill="#ECD592"/><path d="M111.716,282.9c1.617-2.801,3.4-5.5,5.317-8.102c-0.534,5.268-3.3,9.834-6.234,14.083l-1.399-1.666  C110.133,285.75,110.9,284.316,111.716,282.9L111.716,282.9z" fill="#D7C27C"/><path d="M125.533,278.8c13.417-4.3,27.117,0.351,39.95,4.351c0,1.767,0,3.533-0.017,5.301  C152.233,284.982,138.083,284.533,125.533,278.8L125.533,278.8z" fill="#242110"/><path d="M168.449,289.449c-0.033-2.666,0.067-5.35,0.717-7.934c5.134,6.185,12.833,10.051,20.817,10.801  c11.999-0.918,23.483-8.866,35.767-5C209.367,300.316,186.617,295.85,168.449,289.449L168.449,289.449z" fill="#D6D6D5"/><path d="M128.55,292.617c0.584,0.55,1.767,1.65,2.35,2.199c0.6,8.115,5.5,14.916,9.3,21.85  c3.084,5.734,8.3,9.9,13.633,13.451c3.767,1.049,7.733,0.916,11.617,1.232c-11.8,0.815-23.616-0.718-35.383,0.483  c-0.867,3.582-1.45,7.217-1.417,10.916c-2.117-1.301-4.234-2.601-6.367-3.899c-1.684-7.268-4.084-14.384-5.434-21.701  c1.183-3.799,3.067-7.332,4.634-10.967c1.482-0.049,2.983-0.099,4.466-0.133C126.65,301.551,127.534,297.066,128.55,292.617  L128.55,292.617z" fill="#EED88B"/><path d="M130.9,294.816c6.15,4.233,10.667,10.351,16.867,14.518c1.733,1.55,3.333,3.232,5,4.85  c3.65,2.899,8.316,3.834,12.699,5.084c0,4.016-0.016,8.051-0.016,12.084c-3.884-0.317-7.85-0.186-11.617-1.233  c-5.333-3.55-10.549-7.718-13.633-13.451C136.399,309.732,131.5,302.934,130.9,294.816L130.9,294.816z" fill="#DFC677"/><path d="M147.767,309.334c5.949-3.084,11.516-6.885,17.633-9.634c-0.017,3.433-0.05,6.851,0.099,10.282  c-4.433,0.701-9.599,0.317-12.732,4.199C151.1,312.566,149.5,310.884,147.767,309.334L147.767,309.334z" fill="#927D49"/><path d="M152.767,314.184c3.133-3.883,8.3-3.5,12.732-4.199c-0.033,3.082-0.033,6.183-0.033,9.283  C161.083,318.018,156.417,317.083,152.767,314.184L152.767,314.184z" fill="#C4A859"/><path d="M394.284,310.301c0.731,0.583,2.217,1.731,2.949,2.316c1.649-0.401,3.282-0.801,4.949-1.2  c0.732,3.283,2.25,6.3,3.167,9.533c-1.134,4.917-3.135,9.683-5.834,13.948c-3.183,1.851-6.917,2.668-9.767,5.084  c-2.884,1.867-5.484,5.317-9.35,4.101C386.584,333.55,391.101,322.083,394.284,310.301L394.284,310.301z" fill="#C0993A"/><path d="M106.633,323.784c1.234,2.063,2.567,4.065,3.799,6.147c3.518,13.635,8.351,27.916,18.301,38.234  c0.117,7.417-0.267,14.833,0.15,22.249c0.017,2.668,1.333,6.315,4.617,6.05c9.333,0.4,18.7,0.034,28.05,0.067  c-3.634,4.8-0.984,10.499-0.884,15.851c0.101,6.301,3.417,11.884,4.384,18c-2.633,6.667-7.033,12.416-10.516,18.633  c-3.484,0.517-7.134-0.865-10.484,0.101c-1.983,2.732-3.083,6.601-6.866,7.334c-17.867-11.102-34.684-24.05-49.1-39.435  c6.383-12.949,11.783-27,10.55-41.716c-0.967-6.067,3.633-10.899,4.583-16.618c-0.15-3.365-2.684-6.015-4.2-8.884  C104.434,342.217,106.417,332.967,106.633,323.784L106.633,323.784z" fill="#E5CB7A"/><path d="M110.433,329.934c4.801,2.734,6.867,8.25,10.5,12.2c0.333-0.817,1.017-2.468,1.351-3.282  c2.133,1.299,4.25,2.599,6.367,3.898c0.216,8.468,0.166,16.95,0.083,25.417C118.784,357.85,113.95,343.566,110.433,329.934  L110.433,329.934z" fill="#D2B159"/><path d="M413.884,341.352c1.583,1.883,3.066,3.864,4.315,6c0.85,9.899,3.066,19.666,3.168,29.648  c0.249,13.467,0.449,26.934,1.083,40.384c-14.982,15.852-32.352,29.533-51.299,40.3c-7.187-5.148-15.451-1.167-22.001,2.935  c1.216-2.4,3.031-4.352,5.065-6.066c4.019-3.352,5.583-8.75,9.784-11.935c4.333-3.898,10.134-6.116,13.549-10.982  c3.45-7.45,10.983-11.5,15.518-18.15c4.233-6.082,11.198-11.685,10.55-19.816c-0.299-6.984,1.117-13.832,1.934-20.716  c0.233-5.019,1-10.084,3.134-14.668C413.267,353.9,412.067,346.968,413.884,341.352L413.884,341.352z" fill="#BA9040"/><path d="M386.199,356.466c3.967-4.183,9.483-7.083,15.399-6.132c4.084,0.416,5.083,5.116,7.084,7.948  c-2.134,4.584-2.899,9.649-3.134,14.668c-0.815,6.884-2.231,13.731-1.934,20.716c0.648,8.133-6.315,13.734-10.55,19.816  c-4.533,6.65-12.066,10.7-15.518,18.15c-2.417,0.018-4.834,0.049-7.251,0.083c6.085-9.3,9.902-19.782,14.733-29.717  c1.118-1.634,0.635-3.433,0.066-5.134c-1.148-2.866,0.302-5.832,0.151-8.766c-0.502-3.019-1.77-5.834-2.767-8.701  c-5.151-0.949-10.335-2.268-15.602-1.967c-6.55,1.184-11.082,6.666-16.982,9.268c-2.817,1.199-6,1.499-8.618,3.166  c-5.232,4.449-6.481,12.217-12.548,15.916c-5.917,4.035-11.136,8.951-16.685,13.451c-3.268,3.051-8.034,0.783-11.968,1.434  c-3.468,1.767-5.899,5.001-9.183,7.049c-4.25,1.436-9.283,0.834-12.817,4.001c-5.767,5-14.25,3.565-20.351,8.017  c-6.899,3.519-10,11.301-16.6,15.185c-4.966,2.968-8.884,7.283-12.834,11.45c-1.067-1.316-2.133-2.617-3.183-3.918  c-5.5,3.184-9.983,8.284-16.417,9.635c-2.301-2.734-4.534-6.066-8.5-6.234c0.65-1.334,1.284-2.666,1.884-4.017  c-1.367-1.767-2.917-3.517-5.401-3.149c-6.032-0.732-12.099,0.55-18.133,0.102c-4.1-2.186-7.583-5.501-10.05-9.436  c4.633-5.517,6.783-12.499,10.65-18.467c2.3-3.2,6.016-0.647,8.916,0.067c1.2-2.768,2.417-5.519,3.617-8.268  c1.633,0.2,3.267,0.4,4.9,0.617c3.933-3.584,6.233-8.384,7.75-13.399c2.633-0.784,5.266-1.567,7.883-2.366  c-0.034-4.367,1.965-8.117,5.115-11.034c22.001,0.184,44,0.018,66.001,0.084c25.283,0.566,50.667-7.686,70.801-22.984  c4.231-3.148,8.047-6.8,11.682-10.6C372.917,362.3,380.982,362.05,386.199,356.466L386.199,356.466z" fill="#D8C173"/><path d="M349.9,386.7c5.9-2.601,10.434-8.084,16.982-9.269c5.267-0.3,10.449,1.019,15.602,1.969  c0.998,2.865,2.265,5.683,2.767,8.699c0.149,2.935-1.301,5.899-0.151,8.767c0.567,1.7,1.052,3.5-0.066,5.134  c-4.831,9.934-8.648,20.417-14.733,29.717c2.417-0.034,4.834-0.065,7.251-0.083c-3.415,4.866-9.216,7.084-13.549,10.982  c-4.201,3.185-5.767,8.583-9.784,11.935c-2.034,1.716-3.851,3.666-5.065,6.066c-8.617,5.716-18.802,8.315-27.984,12.933  c-0.065-1.7-0.133-3.4-0.184-5.084c-6.634,1.483-13.299,2.769-19.816,4.65c-5.6,1.533-9.032,6.649-13.982,9.315  c-3.949,1.45-8.516,1.802-11.449,5.2c-30.284,2.5-61.033-0.533-90.102-9.45c3.251-1.031,6.5-2.133,9.701-3.364  c0.432-3.552,2.383-6.484,4.866-8.969c3.966,0.168,6.2,3.5,8.5,6.234c6.433-1.351,10.916-6.451,16.417-9.635  c1.05,1.301,2.116,2.602,3.183,3.918c3.95-4.167,7.868-8.482,12.834-11.45c6.6-3.884,9.699-11.666,16.598-15.185  c6.102-4.45,14.584-3.017,20.352-8.017c3.534-3.167,8.566-2.565,12.816-4.001c3.283-2.048,5.717-5.282,9.184-7.049  c3.934-0.649,8.7,1.617,11.968-1.435c5.55-4.5,10.768-9.416,16.685-13.45c6.065-3.699,7.314-11.466,12.548-15.916  C343.9,388.199,347.083,387.898,349.9,386.7L349.9,386.7z" fill="#E0CD81"/><path d="M161.55,396.533c2.05,0,4.1,0.018,6.15,0.033c4.75,5.582,10.883,11.781,18.716,11.781  c6.184-0.613,3.117-7.947,2.3-11.814c9.534-0.018,19.084,0,28.616-0.033c-3.15,2.917-5.149,6.667-5.115,11.034  c-2.618,0.799-5.25,1.582-7.883,2.366c-1.518,5.017-3.817,9.815-7.75,13.399c-1.633-0.217-3.267-0.417-4.9-0.617  c-1.2,2.749-2.417,5.5-3.617,8.268c-2.9-0.716-6.616-3.269-8.916-0.067c-3.868,5.968-6.017,12.95-10.65,18.467  c-0.833-1.683-1.65-3.365-2.433-5.065c-3.816,1.667-7.633,3.3-11.533,4.732c3.482-6.217,7.883-11.966,10.516-18.633  c-0.966-6.116-4.283-11.7-4.384-18C160.566,407.032,157.917,401.333,161.55,396.533L161.55,396.533z" fill="#C2A44D"/><path d="M167.7,396.566c7-0.033,14.016-0.033,21.017-0.033c0.817,3.867,3.884,11.201-2.3,11.814  C178.583,408.35,172.451,402.148,167.7,396.566L167.7,396.566z" fill="#D2B159"/><path d="M154.534,449.017c3.899-1.434,7.716-3.065,11.533-4.732c0.783,1.7,1.6,3.384,2.433,5.065  c2.467,3.935,5.95,7.25,10.05,9.436c6.034,0.448,12.101-0.834,18.133-0.102c2.484-0.366,4.034,1.384,5.401,3.149  c-0.6,1.351-1.234,2.683-1.884,4.017c-2.483,2.483-4.434,5.417-4.866,8.969c-3.201,1.231-6.45,2.333-9.701,3.364  c-16.849-5.583-33.066-12.882-48.449-21.731c3.783-0.733,4.883-4.602,6.866-7.334C147.4,448.15,151.05,449.532,154.534,449.017  L154.534,449.017z" fill="#CEB052"/><path d="M349.15,460.617c6.55-4.102,14.814-8.083,22.001-2.935c-29.018,16.884-61.886,27.584-95.417,29.949  c2.934-3.398,7.5-3.75,11.447-5.2c4.951-2.666,8.385-7.782,13.983-9.315c6.519-1.883,13.184-3.167,19.816-4.65  c0.051,1.684,0.117,3.384,0.184,5.084C330.35,468.934,340.533,466.333,349.15,460.617L349.15,460.617z" fill="#D2BA6B"/></svg>